<?xml version="1.0" encoding="UTF-8"?>
<!DOCTYPE svg PUBLIC "-//W3C//DTD SVG 1.1//EN" "http://www.w3.org/Graphics/SVG/1.1/DTD/svg11.dtd">
<svg xmlns="http://www.w3.org/2000/svg" xml:space="preserve" width="800px" height="100px" version="1.1" style="shape-rendering:geometricPrecision; text-rendering:geometricPrecision; image-rendering:optimizeQuality; fill-rule:evenodd; clip-rule:evenodd" viewBox="0 0 800000 99999" xmlns:xlink="http://www.w3.org/1999/xlink">
 <defs>
  <style type="text/css">
   <![CDATA[
    .fil1 {fill:#0C306C;fill-rule:nonzero}
    .fil0 {fill:#17A2B8;fill-rule:nonzero}
	/*.md
	{
		animation: mdk 5s linear infinite;
	}
	.mu
	{
		animation: muk 5s linear infinite;
	}
	@keyframes mdk
	{
		0% {transform: translateY(100%)}
		20% {transform: translateY(100%)}
		30% {transform: translateY(0)}
		90% {transform: translateY(0)}
		100%{transform: translateY(100%)}
	}
	@keyframes muk
	{
		0% {transform: translateY(-100%)}
		20% {transform: translateY(-100%)}
		30% {transform: translateY(0)}
		90% {transform: translateY(0)}
		100%{transform: translateY(-100%)}
	}*/

   ]]>
  </style>
 </defs>
  <g class="md">
   <path class="fil0" d="M82106 79738c-475,-820 -815,-1834 -1034,-3052 -2494,2469 -5741,3699 -9731,3699 -3770,0 -6908,-971 -9389,-2912 -2482,-1941 -3722,-4389 -3722,-7344 0,-3623 1520,-6406 4549,-8347 3029,-1940 7407,-2922 13124,-2944l4743 0 0 -1941c0,-1574 -463,-2825 -1375,-3764 -912,-938 -2360,-1412 -4330,-1412 -1726,0 -3088,367 -4075,1090 -984,721 -1483,1724 -1483,2987l-10290 0c0,-1974 682,-3807 2056,-5479 1387,-1682 3332,-2998 5850,-3957 2518,-960 5340,-1435 8478,-1435 4755,0 8526,1057 11311,3171 2798,2124 4196,5090 4196,8929l0 14817c24,3235 535,5693 1532,7354l0 540 -10410 0zm-8514 -6342c1520,0 2919,-301 4209,-894 1275,-605 2224,-1414 2845,-2416l0 -5878 -3843 0c-5157,0 -7907,1575 -8234,4735l-38 539c0,1133 450,2071 1351,2815 899,733 2141,1099 3710,1099z"/>
   <polygon id="1" class="fil0" points="109762,79738 99424,79738 99424,31210 109762,31210 "/>
   <path id="2" class="fil0" d="M116622 62343c0,-3396 742,-6417 2214,-9069 1471,-2653 3587,-4713 6361,-6168 2760,-1456 5972,-2179 9632,-2179 5206,0 9450,1412 12746,4239 3285,2814 5122,6653 5499,11494l72 2341c0,5251 -1654,9457 -4950,12627 -3309,3172 -7735,4757 -13294,4757 -5558,0 -9997,-1585 -13306,-4746 -3320,-3159 -4974,-7451 -4974,-12886l0 -410zm10301 648c0,3245 682,5726 2069,7441 1374,1713 3344,2577 5910,2577 2494,0 4439,-853 5837,-2545 1413,-1694 2105,-4411 2105,-8142 0,-3182 -692,-5651 -2105,-7398 -1398,-1747 -3368,-2621 -5910,-2621 -2518,0 -4463,874 -5837,2610 -1387,1736 -2069,4433 -2069,8078z"/>
   <path id="3" class="fil0" d="M181181 54104c-1398,-162 -2627,-248 -3698,-248 -3904,0 -6458,1165 -7663,3506l0 22376 -10301 0 0 -34164 9731 0 279 4055c2068,-3138 4938,-4702 8587,-4702 1143,0 2213,140 3211,410l-146 8767z"/>
   <path id="4" class="fil0" d="M207403 79738c-473,-820 -815,-1834 -1033,-3052 -2494,2469 -5742,3699 -9731,3699 -3769,0 -6909,-971 -9389,-2912 -2482,-1941 -3722,-4389 -3722,-7344 0,-3623 1520,-6406 4550,-8347 3027,-1940 7405,-2922 13122,-2944l4743 0 0 -1941c0,-1574 -461,-2825 -1374,-3764 -911,-938 -2359,-1412 -4329,-1412 -1727,0 -3090,367 -4075,1090 -985,721 -1485,1724 -1485,2987l-10288 0c0,-1974 680,-3807 2055,-5479 1386,-1682 3333,-2998 5851,-3957 2517,-960 5339,-1435 8477,-1435 4756,0 8526,1057 11311,3171 2797,2124 4197,5090 4197,8929l0 14817c23,3235 535,5693 1532,7354l0 540 -10412 0zm-8513 -6342c1520,0 2919,-301 4208,-894 1277,-605 2225,-1414 2845,-2416l0 -5878 -3842 0c-5157,0 -7906,1575 -8234,4735l-37 539c0,1133 450,2071 1350,2815 900,733 2141,1099 3710,1099z"/>
   <path id="5" class="fil0" d="M245071 70302c0,-1111 -633,-1995 -1873,-2632 -1252,-647 -3248,-1219 -6009,-1725 -9171,-1704 -13756,-5165 -13756,-10363 0,-3042 1425,-5575 4258,-7603 2845,-2038 6555,-3052 11140,-3052 4890,0 8806,1025 11737,3062 2930,2050 4403,4702 4403,7971l-10302 0c0,-1306 -473,-2373 -1422,-3225 -950,-853 -2433,-1273 -4452,-1273 -1740,0 -3077,345 -4026,1036 -948,700 -1424,1585 -1424,2653 0,1002 536,1822 1619,2436 1081,626 2907,1165 5472,1608 2567,452 4720,969 6483,1530 5437,1770 8161,4843 8161,9199 0,3117 -1507,5641 -4524,7571 -3015,1930 -6920,2890 -11688,2890 -3235,0 -6107,-507 -8612,-1532 -2505,-1024 -4463,-2426 -5898,-4206 -1423,-1779 -2130,-3698 -2130,-5769l9756 0c97,1628 777,2868 2032,3742 1264,862 2954,1295 5058,1295 1971,0 3467,-335 4477,-992 1010,-669 1520,-1543 1520,-2621z"/>
   <path class="fil0" d="M356746 79738c-475,-820 -817,-1834 -1035,-3052 -2493,2469 -5741,3699 -9730,3699 -3770,0 -6909,-971 -9390,-2912 -2481,-1941 -3721,-4389 -3721,-7344 0,-3623 1520,-6406 4549,-8347 3027,-1940 7407,-2922 13122,-2944l4745 0 0 -1941c0,-1574 -463,-2825 -1375,-3764 -912,-938 -2360,-1412 -4330,-1412 -1727,0 -3089,367 -4075,1090 -984,721 -1483,1724 -1483,2987l-10290 0c0,-1974 680,-3807 2055,-5479 1387,-1682 3333,-2998 5851,-3957 2517,-960 5339,-1435 8477,-1435 4756,0 8526,1057 11311,3171 2799,2124 4197,5090 4197,8929l0 14817c24,3235 535,5693 1532,7354l0 540 -10410 0zm-8514 -6342c1519,0 2919,-301 4207,-894 1277,-605 2225,-1414 2847,-2416l0 -5878 -3844 0c-5156,0 -7906,1575 -8234,4735l-37 539c0,1133 450,2071 1351,2815 899,733 2140,1099 3710,1099z"/>
   <path id="1" class="fil0" d="M385862 37162l0 8412 6592 0 0 6729 -6592 0 0 17038c0,1263 280,2169 826,2718 548,551 1593,820 3139,820 1130,0 2140,-76 3027,-215l0 6901c-2017,551 -4097,820 -6237,820 -7226,0 -10911,-3225 -11045,-9684l0 -18398 -5631 0 0 -6729 5631 0 0 -8412 10290 0z"/>
   <path id="2" class="fil0" d="M415952 80385c-5656,0 -10265,-1543 -13817,-4616 -3551,-3073 -5326,-7172 -5326,-12294l0 -884c0,-3429 753,-6503 2250,-9210 1495,-2706 3610,-4799 6360,-6254 2748,-1467 5875,-2200 9390,-2200 5278,0 9426,1477 12454,4422 3028,2954 4537,7139 4537,12552l0 3732 -24544 0c328,2232 1338,4011 3004,5358 1679,1349 3794,2018 6361,2018 3977,0 7067,-1273 9304,-3807l5060 5025c-1545,1931 -3637,3451 -6275,4529 -2629,1089 -5560,1629 -8758,1629zm-1180 -28082c-2043,0 -3697,615 -4975,1845 -1265,1229 -2078,2987 -2432,5272l14315 0 0 -732c-48,-2028 -656,-3602 -1849,-4713 -1191,-1111 -2869,-1672 -5059,-1672z"/>
   <polygon id="3" class="fil0" points="448500,79738 438161,79738 438161,31210 448500,31210 "/>
   <polygon id="4" class="fil0" points="467850,79738 457512,79738 457512,31210 467850,31210 "/>
   <path id="5" class="fil0" d="M487188 79738l-10326 0 0 -34164 10326 0 0 34164zm-10934 -42986c0,-1358 511,-2491 1544,-3374 1034,-885 2444,-1326 4232,-1326 1752,0 3150,441 4197,1326 1046,883 1568,2016 1568,3374 0,1392 -522,2535 -1580,3420 -1059,883 -2457,1326 -4185,1326 -1739,0 -3137,-443 -4195,-1326 -1058,-885 -1581,-2028 -1581,-3420z"/>
   <path id="6" class="fil0" d="M508010 37162l0 8412 6591 0 0 6729 -6591 0 0 17038c0,1263 280,2169 826,2718 547,551 1594,820 3139,820 1130,0 2140,-76 3027,-215l0 6901c-2018,551 -4097,820 -6238,820 -7226,0 -10909,-3225 -11044,-9684l0 -18398 -5632 0 0 -6729 5632 0 0 -8412 10290 0z"/>
   <path id="7" class="fil0" d="M538099 80385c-5656,0 -10264,-1543 -13816,-4616 -3552,-3073 -5327,-7172 -5327,-12294l0 -884c0,-3429 754,-6503 2250,-9210 1495,-2706 3611,-4799 6360,-6254 2749,-1467 5875,-2200 9391,-2200 5278,0 9426,1477 12454,4422 3027,2954 4537,7139 4537,12552l0 3732 -24544 0c327,2232 1337,4011 3004,5358 1678,1349 3793,2018 6360,2018 3978,0 7068,-1273 9306,-3807l5059 5025c-1545,1931 -3637,3451 -6276,4529 -2628,1089 -5559,1629 -8758,1629zm-1179 -28082c-2044,0 -3697,615 -4974,1845 -1266,1229 -2080,2987 -2433,5272l14315 0 0 -732c-49,-2028 -657,-3602 -1849,-4713 -1191,-1111 -2870,-1672 -5059,-1672z"/>
   <path class="fil0" d="M650234 80385c-5657,0 -10265,-1543 -13817,-4616 -3552,-3073 -5327,-7172 -5327,-12294l0 -884c0,-3429 754,-6503 2250,-9210 1496,-2706 3611,-4799 6360,-6254 2749,-1467 5875,-2200 9390,-2200 5279,0 9427,1477 12455,4422 3027,2954 4537,7139 4537,12552l0 3732 -24545 0c328,2232 1338,4011 3005,5358 1678,1349 3794,2018 6360,2018 3978,0 7067,-1273 9305,-3807l5060 5025c-1546,1931 -3637,3451 -6277,4529 -2628,1089 -5558,1629 -8756,1629zm-1180 -28082c-2044,0 -3697,615 -4975,1845 -1265,1229 -2079,2987 -2432,5272l14315 0 0 -732c-49,-2028 -657,-3602 -1850,-4713 -1190,-1111 -2869,-1672 -5058,-1672z"/>
   <path id="1" class="fil0" d="M681382 45574l328 3947c2750,-3062 6446,-4594 11080,-4594 4088,0 7129,1068 9123,3192 1994,2125 3015,5306 3065,9533l0 22086 -10303 0 0 -21903c0,-1930 -474,-3342 -1422,-4216 -948,-873 -2530,-1316 -4745,-1316 -2893,0 -5070,1101 -6518,3289l0 24146 -10302 0 0 -34164 9694 0z"/>
   <path id="2" class="fil0" d="M725107 37162l0 8412 6592 0 0 6729 -6592 0 0 17038c0,1263 280,2169 826,2718 548,551 1593,820 3139,820 1131,0 2140,-76 3027,-215l0 6901c-2018,551 -4097,820 -6238,820 -7225,0 -10910,-3225 -11045,-9684l0 -18398 -5630 0 0 -6729 5630 0 0 -8412 10291 0z"/>
   <path id="3" class="fil0" d="M755197 80385c-5656,0 -10265,-1543 -13816,-4616 -3552,-3073 -5327,-7172 -5327,-12294l0 -884c0,-3429 753,-6503 2250,-9210 1495,-2706 3610,-4799 6360,-6254 2748,-1467 5875,-2200 9390,-2200 5278,0 9426,1477 12453,4422 3029,2954 4538,7139 4538,12552l0 3732 -24544 0c328,2232 1338,4011 3004,5358 1679,1349 3794,2018 6361,2018 3978,0 7066,-1273 9304,-3807l5060 5025c-1546,1931 -3636,3451 -6276,4529 -2628,1089 -5558,1629 -8757,1629zm-1180 -28082c-2043,0 -3697,615 -4975,1845 -1265,1229 -2078,2987 -2431,5272l14315 0 0 -732c-49,-2028 -657,-3602 -1850,-4713 -1191,-1111 -2869,-1672 -5059,-1672z"/>
   <path id="4" class="fil0" d="M798545 54104c-1399,-162 -2628,-248 -3698,-248 -3904,0 -6457,1165 -7662,3506l0 22376 -10303 0 0 -34164 9731 0 280 4055c2067,-3138 4938,-4702 8587,-4702 1143,0 2212,140 3210,410l-145 8767z"/>
  </g>
  <g class="mu">
   <path class="fil1" d="M40850 64023c0,-2387 -957,-4227 -2854,-5508 -1898,-1264 -5320,-2617 -10266,-4040 -4946,-1409 -8855,-2818 -11741,-4185 -7849,-3766 -11775,-8843 -11775,-15227 0,-3307 1055,-6269 3162,-8872 2093,-2602 5125,-4630 9067,-6097 3941,-1451 8368,-2185 13282,-2185 4946,0 9341,790 13201,2387 3875,1582 6875,3825 9017,6715 2124,2904 3195,6183 3195,9864l-14239 0c0,-2804 -1006,-4976 -3001,-6543 -1995,-1552 -4800,-2329 -8416,-2329 -3471,0 -6179,647 -8125,1956 -1930,1308 -2887,3034 -2887,5177 0,1984 1135,3666 3389,5018 2270,1337 5595,2602 10007,3781 8108,2172 14012,4846 17725,8053 3698,3206 5547,7189 5547,11963 0,5305 -2254,9476 -6795,12496 -4525,3019 -10622,4528 -18278,4528 -5335,0 -10168,-862 -14546,-2587 -4363,-1726 -7705,-4099 -10008,-7104 -2285,-3004 -3438,-6499 -3438,-10454l14304 0c0,6759 4558,10138 13688,10138 3374,0 6033,-604 7931,-1826 1897,-1223 2854,-2934 2854,-5119z"/>
   <path class="fil1" d="M314422 65147c0,-2387 -956,-4227 -2852,-5507 -1900,-1265 -5321,-2617 -10268,-4041 -4945,-1409 -8855,-2818 -11741,-4184 -7849,-3767 -11775,-8843 -11775,-15227 0,-3307 1056,-6269 3163,-8873 2093,-2602 5125,-4630 9067,-6096 3940,-1452 8368,-2185 13282,-2185 4947,0 9340,790 13201,2387 3876,1581 6876,3824 9016,6714 2125,2904 3196,6183 3196,9865l-14240 0c0,-2804 -1005,-4976 -3001,-6544 -1993,-1552 -4799,-2329 -8416,-2329 -3470,0 -6179,647 -8124,1956 -1931,1309 -2887,3034 -2887,5177 0,1984 1136,3666 3389,5018 2270,1337 5595,2602 10006,3781 8110,2172 14012,4846 17725,8053 3698,3207 5548,7189 5548,11963 0,5306 -2255,9476 -6795,12496 -4526,3019 -10623,4529 -18279,4529 -5335,0 -10167,-862 -14546,-2588 -4362,-1726 -7703,-4098 -10007,-7103 -2285,-3005 -3438,-6500 -3438,-10454l14305 0c0,6758 4556,10137 13686,10137 3375,0 6033,-603 7933,-1826 1896,-1222 2852,-2934 2852,-5119z"/>
   <path class="fil1" d="M626176 59334c-537,6600 -3277,11791 -8239,15587 -4947,3781 -11482,5679 -19591,5679 -8871,0 -15844,-2646 -20937,-7951 -5076,-5292 -7622,-12567 -7622,-21813l0 -3754c0,-5895 1167,-11100 3519,-15601 2336,-4486 5693,-7937 10039,-10338 4363,-2402 9422,-3610 15180,-3610 7995,0 14416,1899 19298,5680 4881,3797 7703,9116 8449,15975l-14254 0c-342,-3969 -1590,-6845 -3730,-8627 -2125,-1783 -5385,-2675 -9763,-2675 -4752,0 -8303,1511 -10656,4529 -2367,3021 -3567,7708 -3633,14064l0 4630c0,6628 1119,11474 3391,14537 2270,3062 5837,4601 10719,4601 4394,0 7687,-891 9860,-2659 2157,-1784 3407,-4530 3730,-8254l14240 0z"/>
  </g>
</svg>
