<?xml version="1.0" encoding="UTF-8"?>
<!DOCTYPE svg PUBLIC "-//W3C//DTD SVG 1.1//EN" "http://www.w3.org/Graphics/SVG/1.1/DTD/svg11.dtd">
<svg xmlns="http://www.w3.org/2000/svg" xml:space="preserve" width="364px" height="400px" version="1.1" style="shape-rendering:geometricPrecision; text-rendering:geometricPrecision; image-rendering:optimizeQuality; fill-rule:evenodd; clip-rule:evenodd" viewBox="0 0 364 400"  xmlns:xlink="http://www.w3.org/1999/xlink">
 <defs>
  <style type="text/css">
   <![CDATA[
    .fil0 {fill:#264796}
   ]]>
  </style>
 </defs>
   <path class="fil0" d="M64 7c-21,8 -34,28 -45,46 -51,90 9,194 86,252l18 13 -22 82 228 0 -1 -13 -68 -36 26 -7c21,-8 45,-24 60,-41 11,-12 17,-27 18,-49 0,-12 -6,-46 -11,-55 -2,7 -3,9 -3,12 0,2 0,4 2,9 13,58 -14,103 -85,95 -55,-6 -116,-46 -155,-85 -31,-31 -58,-71 -72,-114 -15,-46 -7,-92 42,-105 14,-3 23,-3 32,-3l13 -5c-3,-2 -21,-3 -26,-3 -13,0 -26,2 -37,7z"/>
   <path class="fil0" d="M161 158c3,14 31,28 53,23 25,-6 35,-29 28,-47 -9,-20 -36,-26 -45,-33 -8,-7 -5,-22 7,-23 12,-1 16,9 21,17 3,0 13,-8 15,-10 -5,-14 -31,-28 -52,-21 -23,8 -29,35 -23,49 9,20 39,24 44,32 7,9 -1,21 -12,20 -11,-1 -18,-15 -20,-17 -4,1 -13,8 -16,10z"/>
   <path class="fil0" d="M165 146c-3,-5 -14,-11 -21,-15 -7,-4 -18,-7 -22,-14 -5,-9 5,-19 15,-18 10,1 13,10 18,17l3 -2c0,-3 -2,-6 -2,-11 0,-4 1,-8 1,-12 -4,-1 -7,-4 -12,-6 -25,-7 -49,4 -52,30 -3,21 7,31 27,40 4,2 7,4 12,6 18,8 6,28 -9,24 -9,-2 -13,-11 -17,-16 -4,0 -12,7 -16,9 3,15 39,35 66,19 5,-4 13,-11 14,-18 -1,-2 -14,-10 -18,-23 3,-3 12,-7 13,-10z"/>
   <path class="fil0" d="M322 163c-5,8 -8,13 -15,18 -6,5 -18,8 -27,5 -15,-4 -23,-22 -24,-41 -1,-36 23,-57 47,-41 7,5 10,10 15,18 2,-1 12,-9 14,-11 0,-7 -13,-17 -19,-20 -9,-5 -20,-7 -32,-7 -12,1 -21,3 -30,8 -6,4 -18,14 -19,20 8,8 18,14 18,33 0,23 -14,31 -16,35 2,6 14,14 22,17 10,5 19,6 33,5 11,0 21,-4 29,-9 5,-3 16,-13 17,-21 -3,-2 -10,-8 -13,-9z"/>
</svg>