<?xml version="1.0" encoding="UTF-8"?>
<!DOCTYPE svg PUBLIC "-//W3C//DTD SVG 1.1//EN" "http://www.w3.org/Graphics/SVG/1.1/DTD/svg11.dtd">
<svg xmlns="http://www.w3.org/2000/svg" xml:space="preserve" width="800px" height="203px" version="1.1" style="shape-rendering:geometricPrecision; text-rendering:geometricPrecision; image-rendering:optimizeQuality; fill-rule:evenodd; clip-rule:evenodd" viewBox="0 0 800 203" xmlns:xlink="http://www.w3.org/1999/xlink">
 <defs>
  <style type="text/css">
   <![CDATA[
    .fil0 {fill:#264796}
    .fil1 {fill:#264796;fill-rule:nonzero}
   ]]>
  </style>
 </defs>
    <path class="fil0" d="M32 3c-10,5 -17,15 -22,24 -26,45 4,98 43,127l10 7 -12 42 115 0 0 -7 -34 -18 13 -4c11,-4 23,-12 30,-20 6,-6 9,-14 9,-25 1,-7 -2,-24 -5,-28 -1,3 -2,5 -2,6 0,1 1,2 1,5 7,29 -7,51 -43,48 -28,-3 -58,-24 -78,-44 -16,-15 -30,-36 -37,-57 -7,-23 -4,-47 22,-53 7,-2 11,-2 16,-2l7 -2c-2,-2 -11,-2 -14,-2 -6,0 -13,1 -19,3z"/>
    <path class="fil0" d="M81 80c2,7 16,14 27,12 13,-3 18,-15 14,-24 -4,-10 -18,-13 -22,-17 -4,-3 -3,-11 3,-11 7,-1 9,4 11,8 1,0 7,-4 8,-5 -3,-7 -16,-14 -27,-10 -11,4 -15,17 -11,24 4,10 19,13 22,16 3,5 -1,11 -6,11 -6,-1 -9,-8 -11,-9 -1,1 -6,4 -8,5z"/>
    <path class="fil0" d="M84 74c-2,-3 -7,-6 -11,-8 -4,-2 -9,-3 -11,-7 -3,-4 2,-10 7,-9 6,1 7,5 9,9l2 -1c0,-2 -1,-3 -1,-6 0,-2 1,-4 0,-6 -1,0 -3,-2 -6,-3 -12,-4 -24,2 -26,15 -1,11 4,16 14,21 2,1 4,1 6,2 9,5 3,15 -4,13 -5,-2 -7,-6 -9,-9 -2,1 -6,4 -8,5 1,8 19,18 33,10 3,-2 6,-6 7,-9 -1,-1 -7,-5 -9,-12 1,-1 6,-4 7,-5z"/>
    <path class="fil0" d="M163 83c-3,4 -4,6 -8,9 -3,2 -8,4 -13,2 -8,-2 -12,-11 -12,-21 -1,-18 11,-28 24,-20 3,2 5,5 7,9 1,-1 6,-5 7,-6 0,-3 -7,-8 -9,-10 -5,-2 -11,-4 -16,-3 -7,0 -11,1 -16,4 -3,1 -9,6 -10,10 4,4 10,7 10,16 0,12 -7,16 -9,18 2,3 7,7 11,9 6,2 11,3 17,2 6,0 11,-2 15,-4 3,-2 8,-7 9,-11 -2,-1 -6,-4 -7,-4z"/>
    <path class="fil1" d="M228 166l20 0 -8 -22 -4 0 -8 22zm10 -15l4 11 -8 0 4 -11z"/>
    <path id="1" class="fil1" d="M266 158c0,1 0,3 -1,4 -1,3 -5,4 -8,4 -3,0 -6,-1 -7,-4 -1,-2 -1,-4 -1,-5l0 -4c0,-1 0,-3 1,-5 1,-3 4,-4 7,-4 3,0 7,1 8,4 1,2 1,4 1,5l0 3c0,1 0,1 0,2zm-6 -8c0,-1 -1,-2 -3,-2 -1,0 -2,1 -2,2 -1,0 -1,1 -1,5 0,4 0,5 1,6 0,0 1,1 2,1 2,0 3,-1 3,-1 1,-1 1,-2 1,-6 0,-4 0,-5 -1,-5z"/>
    <path id="2" class="fil1" d="M283 156c2,-1 2,-3 2,-5 0,-4 -3,-7 -7,-7l-9 0 0 22 5 0 0 -8 4 0c2,0 4,-1 5,-2zm-5 -8c2,0 3,1 3,3 0,2 -2,3 -3,3l-4 0 0 -6 4 0z"/>
    <polygon id="3" class="fil1" points="296,157 303,144 298,144 294,152 290,144 285,144 292,157 292,166 296,166 "/>
    <path id="4" class="fil1" d="M316 145c5,0 9,4 9,9l0 1c0,2 0,3 -1,5 -1,3 -5,4 -8,4l0 2 -4 0 0 -2c-5,0 -9,-4 -9,-8 0,-1 0,-1 0,-1 0,-2 1,-4 2,-6 1,-2 4,-4 7,-4l0 -1 4 0 0 1zm0 15c2,0 3,-1 4,-3 0,0 0,-1 0,-2 0,-2 0,-6 -4,-6l0 11zm-4 -11c-2,0 -3,2 -3,3 -1,0 -1,1 -1,3 0,2 0,2 1,4 1,0 2,1 3,1l0 -11z"/>
    <path id="5" class="fil1" d="M344 158c0,1 0,3 -1,4 -1,3 -4,4 -7,4 -3,0 -7,-1 -8,-4 -1,-2 -1,-4 -1,-5l0 -4c0,-1 0,-3 1,-5 1,-3 5,-4 8,-4 3,0 6,1 7,4 1,2 1,4 1,5l0 3c0,1 0,1 0,2zm-6 -8c0,-1 -1,-2 -2,-2 -2,0 -3,1 -3,2 -1,0 -1,1 -1,5 0,4 0,5 1,6 0,0 1,1 3,1 1,0 2,-1 2,-1 1,-1 1,-2 1,-6 0,-4 0,-5 -1,-5z"/>
    <path id="6" class="fil1" d="M362 156c1,-1 2,-3 2,-5 0,-4 -4,-7 -8,-7l-9 0 0 22 5 0 0 -8 4 0c3,0 4,-1 6,-2zm-6 -8c2,0 3,1 3,3 0,2 -1,3 -3,3l-4 0 0 -6 4 0z"/>
    <polygon id="7" class="fil1" points="366,166 371,166 371,144 366,144 "/>
    <polygon id="8" class="fil1" points="380,153 380,144 375,144 375,166 380,166 380,160 383,157 388,166 394,166 386,153 394,144 388,144 "/>
    <path id="9" class="fil1" d="M408 166l5 0 -8 -22 -4 0 -8 22 5 0 2 -4 7 0 1 4zm-5 -15l2 6 -4 0 2 -6z"/>
    <polygon id="10" class="fil1" points="423,156 433,156 433,160 423,160 "/>
    <polygon id="11" class="fil1" points="450,153 450,144 445,144 445,166 450,166 450,160 453,157 458,166 464,166 456,153 463,144 458,144 "/>
    <path id="12" class="fil1" d="M478 166l5 0 -8 -22 -4 0 -8 22 5 0 2 -4 7 0 1 4zm-5 -15l2 6 -4 0 2 -6z"/>
    <path id="13" class="fil1" d="M493 151c1,5 3,10 5,15l5 0 -9 -22 -3 0 -9 22 5 0c2,-5 4,-10 6,-15z"/>
    <path id="14" class="fil1" d="M513 162c2,-1 3,-3 3,-5l0 -2c0,-4 -1,-5 -1,-5 -1,-1 -2,-2 -3,-2 -1,0 -2,1 -3,2 -1,0 -1,1 -1,5l0 2c0,2 1,4 3,5l0 4 -8 0 0 -4 2 0c-1,-1 -2,-3 -2,-5l0 -4c0,-1 0,-3 1,-5 1,-3 5,-4 8,-4 3,0 6,1 7,4 1,2 1,4 1,5l0 2c0,2 0,5 -1,7l2 0 0 4 -8 0 0 -4z"/>
    <path id="15" class="fil1" d="M521 166l20 0 -8 -22 -4 0 -8 22zm10 -15l4 11 -8 0 4 -11z"/>
    <polygon id="16" class="fil1" points="543,166 548,166 548,144 543,144 "/>
    <path id="17" class="fil1" d="M565 166l5 0 -9 -22 -3 0 -8 22 4 0 2 -4 7 0 2 4zm-5 -15l2 6 -4 0 2 -6z"/>
    <polygon id="18" class="fil1" points="576,153 576,144 572,144 572,166 576,166 576,160 579,157 585,166 590,166 582,153 590,144 584,144 "/>
    <path id="19" class="fil1" d="M604 166l5 0 -8 -22 -4 0 -8 22 5 0 2 -4 7 0 1 4zm-5 -15l2 6 -4 0 2 -6z"/>
    <polygon id="20" class="fil1" points="618,162 623,155 618,148 618,144 633,144 633,148 624,148 629,155 624,162 633,162 633,166 618,166 "/>
    <polygon id="21" class="fil1" points="645,157 652,144 646,144 642,152 638,144 633,144 640,157 640,166 645,166 "/>
    <polygon id="22" class="fil1" points="651,162 656,155 651,148 651,144 666,144 666,148 657,148 662,155 657,162 666,162 666,166 651,166 "/>
    <polygon id="23" class="fil1" points="678,148 684,148 684,144 667,144 667,148 673,148 673,166 678,166 "/>
    <polygon id="24" class="fil1" points="697,166 702,166 702,144 697,144 697,153 690,153 690,144 686,144 686,166 690,166 690,157 697,157 "/>
    <polygon id="25" class="fil1" points="711,156 715,163 718,163 722,156 722,166 726,166 726,144 722,144 716,156 711,144 706,144 706,166 711,166 "/>
    <path id="26" class="fil1" d="M743 166l5 0 -8 -22 -4 0 -8 22 5 0 1 -4 7 0 2 4zm-5 -15l2 6 -4 0 2 -6z"/>
    <polygon id="27" class="fil1" points="757,148 763,148 763,144 747,144 747,148 752,148 752,166 757,166 "/>
    <path id="28" class="fil1" d="M776 166l5 0 -8 -22 -4 0 -8 22 5 0 1 -4 7 0 2 4zm-5 -15l2 6 -4 0 2 -6z"/>
    <polygon class="fil0" points="239,114 272,49 212,49 212,60 245,60 210,125 270,125 270,114 "/>
    <polygon class="fil0" points="733,100 743,100 743,125 759,125 759,74 743,74 743,92 733,92 733,74 717,74 717,125 733,125 "/>
    <polygon class="fil0" points="696,93 706,74 697,74 683,100 683,74 667,74 667,125 683,125 683,101 695,125 713,125 "/>
    <path class="fil0" d="M502 101c0,-8 1,-19 6,-21 8,-2 8,12 8,18 0,6 1,20 -5,21 -8,2 -9,-12 -9,-18zm-16 2c2,15 11,24 27,22 7,0 12,-5 15,-9 8,-11 7,-28 -3,-37 -4,-4 -10,-6 -19,-5 -13,1 -22,13 -20,29z"/>
    <polygon class="fil0" points="367,125 352,95 365,74 357,74 349,88 341,74 323,74 337,100 338,103 324,125 334,125 342,111 350,125 "/>
    <path class="fil0" d="M581 118l8 -29 9 29 -17 0zm35 7c-1,-3 -11,-37 -13,-42 -4,-12 -15,-12 -19,0l-12 42 44 0z"/>
    <path class="fil0" d="M289 108l5 -18 6 18 -11 0zm-5 17l3 -9 14 0 3 9 16 0 -13 -42c-3,-12 -15,-12 -19,-1 -1,5 -2,10 -4,14 -1,4 -7,24 -7,29l7 0z"/>
    <path class="fil0" d="M432 97c0,-5 0,-11 0,-16 2,0 3,0 5,0 4,1 6,4 6,8 0,4 -2,8 -5,8 -2,0 -4,0 -6,0zm0 8l10 0c4,0 7,-1 10,-3 10,-7 7,-26 -9,-27l-24 0 0 50 13 0 0 -20z"/>
    <path class="fil0" d="M798 74l-24 0c-9,0 -13,1 -11,9l7 17 -5 12c-5,12 -2,13 9,13l25 0 0 -8 -18 0 7 -17 -7 -18 17 0 0 -8z"/>
    <polygon class="fil0" points="561,125 561,108 575,74 566,74 557,96 548,74 531,74 548,108 548,125 "/>
    <polygon class="fil0" points="477,125 477,74 461,74 461,125 "/>
    <path class="fil0" d="M384 108l5 -19 5 19 -10 0zm-5 17l2 -9 15 0 3 9 16 0 -13 -42c-3,-12 -15,-12 -19,-1 -1,5 -2,10 -4,14 -1,4 -7,24 -8,29l8 0z"/>
    <path class="fil0" d="M632 108l5 -19 6 19 -11 0zm-5 17l2 -9 15 0 3 9 16 0 -13 -42c-3,-12 -15,-12 -19,-1 -1,5 -2,10 -4,14 -1,4 -7,24 -8,29l8 0z"/>
    <polygon class="fil1" points="317,199 322,192 317,185 317,181 332,181 332,185 323,185 328,192 323,199 332,199 332,203 317,203 "/>
    <polygon id="1" class="fil1" points="344,194 351,181 346,181 341,189 337,181 332,181 339,194 339,203 344,203 "/>
    <polygon id="2" class="fil1" points="350,199 355,192 350,185 350,181 365,181 365,185 356,185 361,192 356,199 365,199 365,203 350,203 "/>
    <polygon id="3" class="fil1" points="377,185 383,185 383,181 366,181 366,185 372,185 372,203 377,203 "/>
    <polygon id="4" class="fil1" points="396,203 401,203 401,181 396,181 396,190 389,190 389,181 385,181 385,203 389,203 389,194 396,194 "/>
    <polygon id="5" class="fil1" points="410,192 414,200 417,200 421,192 421,203 425,203 425,181 421,181 415,193 410,181 405,181 405,203 410,203 "/>
    <path id="6" class="fil1" d="M442 203l5 0 -8 -22 -4 0 -8 22 5 0 1 -5 8 0 1 5zm-5 -15l2 6 -4 0 2 -6z"/>
    <polygon id="7" class="fil1" points="456,185 462,185 462,181 446,181 446,185 452,185 452,203 456,203 "/>
    <path id="8" class="fil1" d="M475 203l5 0 -8 -22 -4 0 -8 22 5 0 1 -5 7 0 2 5zm-5 -15l2 6 -4 0 2 -6z"/>
    <path id="9" class="fil1" d="M506 194c0,2 0,3 -1,5 -1,3 -4,4 -7,4 -4,0 -7,-1 -8,-4 -1,-2 -1,-4 -1,-5l0 -4c0,-2 0,-4 1,-5 1,-3 4,-5 8,-5 3,0 6,2 7,5 1,1 1,3 1,5l0 3c0,1 0,1 0,1zm-6 -8c0,0 -1,-1 -2,-1 -2,0 -3,1 -3,1 -1,1 -1,2 -1,6 0,4 0,5 1,5 0,1 1,2 3,2 1,0 2,-1 2,-2 1,-1 1,-1 1,-5 0,-4 0,-5 -1,-6z"/>
    <polygon id="10" class="fil1" points="521,203 526,203 526,181 509,181 509,203 514,203 514,185 521,185 "/>
    <polygon id="11" class="fil1" points="538,185 544,185 544,181 528,181 528,185 534,185 534,203 538,203 "/>
    <polygon id="12" class="fil1" points="546,203 551,203 551,181 546,181 "/>
    <polygon id="13" class="fil1" points="560,190 560,181 555,181 555,203 560,203 560,197 563,193 568,203 574,203 566,190 573,181 568,181 "/>
    <path id="14" class="fil1" d="M584 198c2,-1 2,-2 2,-4l0 -2c0,-4 0,-5 -1,-6 0,0 -1,-1 -2,-1 -2,0 -3,1 -3,1 -1,1 -1,2 -1,6l0 2c0,2 0,3 3,4l0 5 -8 0 0 -4 2 0c-2,-2 -2,-4 -2,-5l0 -4c0,-2 0,-4 1,-5 1,-3 5,-5 8,-5 3,0 6,2 7,5 1,1 1,3 1,5l0 2c0,2 0,5 -1,7l1 0 0 4 -7 0 0 -5z"/>
    <polygon id="15" class="fil1" points="607,194 599,181 594,181 594,203 599,203 599,190 608,203 612,203 612,181 607,181 "/>
    <polygon id="16" class="fil1" points="624,203 629,203 629,181 624,181 "/>
    <polygon id="17" class="fil1" points="646,194 638,181 633,181 633,203 638,203 638,190 647,203 651,203 651,181 646,181 "/>
    <path id="18" class="fil1" d="M664 198c2,-1 2,-2 2,-4l0 -2c0,-4 0,-5 -1,-6 0,0 -1,-1 -2,-1 -2,0 -3,1 -3,1 -1,1 -1,2 -1,6l0 2c0,2 0,3 3,4l0 5 -8 0 0 -4 1 0c-1,-2 -1,-4 -1,-5l0 -4c0,-2 0,-4 1,-5 1,-3 5,-5 8,-5 3,0 6,2 7,5 1,1 1,3 1,5l0 2c0,2 0,5 -1,7l1 0 0 4 -7 0 0 -5z"/>
    <polygon id="19" class="fil1" points="687,194 678,181 674,181 674,203 679,203 679,190 688,203 692,203 692,181 687,181 "/>
    <path class="fil0" d="M317 34l7 0 0 -23c3,0 8,0 8,5 0,4 -3,5 -7,5l7 13 8 0 -6 -11c1,0 4,-1 6,-5 2,-6 -4,-10 -10,-10l-13 0 0 26z"/>
    <path class="fil0" d="M304 23c-1,14 -14,10 -12,-4 2,-12 14,-9 12,4zm-9 -15c-19,4 -13,29 6,27 7,-1 13,-7 12,-16 -1,-7 -9,-13 -18,-11z"/>
    <polygon class="fil0" points="702,34 706,34 706,16 719,34 724,34 724,8 720,8 720,21 710,8 702,8 "/>
    <path class="fil0" d="M241 23l4 -8 3 8 -7 0zm-7 11l4 0 2 -7 9 0 3 7 9 0 -11 -26 -7 0 -9 26z"/>
    <path class="fil0" d="M213 27l-4 3c1,3 8,6 13,5 7,-1 11,-10 2,-15 -2,-1 -4,-2 -6,-3 -2,-2 -1,-5 1,-6 3,0 5,3 6,4l3 -2c-2,-5 -13,-8 -17,-1 -1,2 -2,5 -1,7 2,5 9,6 11,7 2,2 0,6 -3,5 -3,0 -4,-2 -5,-4z"/>
    <path class="fil0" d="M676 28l-3 -2c-1,1 -4,6 -10,5 -4,0 -6,-5 -6,-9 0,-5 2,-9 5,-10 6,-3 10,3 10,4l4 -2c-2,-3 -4,-4 -7,-5 -2,-1 -7,-2 -10,-1 -13,4 -14,23 1,27 6,1 14,-2 16,-7z"/>
    <polygon class="fil0" points="283,30 273,30 272,8 265,8 265,34 283,34 "/>
    <polygon class="fil0" points="568,34 575,34 575,8 568,8 "/>
    <path class="fil0" d="M353 23l3 -8 3 8 -6 0zm-8 11l4 0 3 -7 9 0 3 7 8 0 -10 -26 -8 0 -9 26z"/>
    <polygon class="fil0" points="541,30 531,30 531,8 524,8 524,34 541,34 "/>
    <polygon class="fil0" points="563,30 553,30 553,8 545,8 545,34 563,34 "/>
    <polygon class="fil0" points="502,8 519,8 519,12 510,12 510,19 519,19 519,23 510,23 510,31 520,31 520,34 502,34 "/>
    <polygon class="fil0" points="606,8 624,8 624,12 614,12 614,19 624,19 624,23 614,23 614,31 624,31 624,34 606,34 "/>
    <polygon class="fil0" points="680,8 698,8 698,12 688,12 688,19 697,19 697,23 688,23 688,31 698,31 698,34 680,34 "/>
    <polygon class="fil0" points="755,8 772,8 772,12 763,12 763,19 772,19 772,23 763,23 763,31 773,31 773,34 755,34 "/>
    <polygon class="fil0" points="728,12 735,12 735,34 743,34 743,12 750,12 750,8 728,8 "/>
    <polygon class="fil0" points="475,12 482,12 482,34 490,34 490,12 498,12 498,8 475,8 "/>
    <polygon class="fil0" points="580,12 587,12 587,34 595,34 595,12 602,12 602,8 580,8 "/>
    <path class="fil0" d="M776 34l8 0 0 -23c3,0 7,0 8,5 0,4 -3,5 -7,5l6 13 9 0 -7 -11c1,0 5,-1 6,-5 3,-6 -4,-10 -10,-10l-13 0 0 26z"/>
    <path class="fil0" d="M380 27l-4 3c2,3 8,6 13,5 7,-1 12,-10 3,-15 -2,-1 -5,-2 -6,-3 -3,-2 -2,-5 1,-6 2,0 4,3 5,4l4 -2c-3,-5 -14,-8 -18,-1 -1,2 -1,5 -1,7 2,5 9,6 11,7 2,2 0,6 -3,5 -2,0 -4,-2 -5,-4z"/>
    <path class="fil0" d="M426 27l-4 3c2,3 8,6 13,5 7,-1 11,-10 3,-15 -2,-1 -5,-2 -7,-3 -2,-2 -1,-5 2,-6 2,0 4,3 5,4l4 -2c-3,-5 -14,-8 -18,-1 -1,2 -2,5 -1,7 2,5 9,6 11,7 2,2 0,6 -3,5 -2,0 -4,-2 -5,-4z"/>
    <path class="fil0" d="M455 23l3 -8 3 8 -6 0zm-8 11l4 0 3 -7 8 0 3 7 9 0 -10 -26 -8 0 -9 26z"/>
</svg>
