<?xml version="1.0" encoding="UTF-8"?>
<!DOCTYPE svg PUBLIC "-//W3C//DTD SVG 1.1//EN" "http://www.w3.org/Graphics/SVG/1.1/DTD/svg11.dtd">
<svg xmlns="http://www.w3.org/2000/svg" xml:space="preserve" width="51px" height="51px" version="1.1" style="shape-rendering:geometricPrecision; text-rendering:geometricPrecision; image-rendering:optimizeQuality; fill-rule:evenodd; clip-rule:evenodd" viewBox="0 0 51000 51002" xmlns:xlink="http://www.w3.org/1999/xlink">
	<defs>
		<style type="text/css">
			<![CDATA[
				.str0 {stroke:#CCCCCC;stroke-width:1176.96}
				.fil1 {fill:none}
				.fil0 {fill:#CCCCCC}
			]]>
  		</style>
	</defs>
	<g>
		<g>
			<path class="fil0" d="M16470 10797c-1597,615 -2578,2150 -3376,3500 -3930,6876 675,14796 6507,19216l1412 982 -1719 6263 17435 0 -61 -983 -5218 -2762 1964 -492c1658,-613 3438,-1841 4605,-3131 859,-920 1289,-2086 1350,-3745 0,-920 -429,-3499 -798,-4236 -183,554 -246,737 -246,921 0,185 0,307 124,675 1043,4482 -1044,7920 -6446,7307 -4236,-492 -8842,-3562 -11850,-6509 -2333,-2394 -4419,-5402 -5463,-8717 -1167,-3500 -554,-7000 3192,-7981 1044,-246 1719,-246 2456,-246l981 -369c-244,-183 -1596,-246 -2025,-246 -983,0 -1964,124 -2824,553l0 0 0 0z"/>
			<path class="fil0" d="M23898 22277c246,1106 2395,2150 4052,1781 1904,-429 2640,-2210 2150,-3560 -676,-1535 -2764,-2027 -3438,-2518 -615,-553 -369,-1719 490,-1780 921,-62 1228,675 1658,1290 184,0 982,-615 1105,-737 -369,-1105 -2333,-2149 -3929,-1597 -1781,614 -2210,2641 -1781,3684 676,1534 2947,1842 3377,2456 491,675 -122,1596 -920,1535 -861,-62 -1413,-1167 -1535,-1290 -307,62 -983,614 -1229,736l0 0z"/>
			<path class="fil0" d="M24205 21357c-246,-368 -1044,-798 -1596,-1105 -553,-307 -1351,-552 -1657,-1105 -431,-676 367,-1411 1104,-1350 798,61 983,737 1413,1289l183 -123c0,-246 -122,-491 -122,-859 0,-307 61,-614 61,-922 -307,-61 -552,-307 -920,-429 -1904,-553 -3745,307 -3930,2271 -245,1596 492,2333 2026,3070 308,123 552,307 921,429 1351,615 429,2150 -676,1842 -674,-183 -981,-859 -1289,-1227 -307,0 -920,553 -1227,675 245,1167 2947,2702 5034,1474 368,-307 983,-860 1044,-1351 -61,-184 -1044,-798 -1351,-1781 246,-245 921,-552 982,-798l0 0 0 0z"/>
			<path class="fil0" d="M36177 22708c-368,613 -614,982 -1105,1350 -491,369 -1412,615 -2087,369 -1167,-308 -1780,-1658 -1841,-3131 -62,-2764 1779,-4360 3621,-3132 492,368 737,798 1105,1412 185,-122 922,-736 1105,-859 0,-553 -1044,-1290 -1473,-1535 -676,-368 -1535,-553 -2457,-553 -920,124 -1595,246 -2270,615 -492,307 -1351,1105 -1473,1534 613,614 1411,1106 1411,2518 0,1779 -1105,2394 -1228,2701 123,430 1044,1043 1657,1289 798,368 1474,429 2518,368 859,0 1596,-307 2210,-675 369,-246 1228,-982 1289,-1596 -184,-185 -737,-615 -982,-676l0 0 0 1z"/>
		</g>
		<circle class="fil1 str0" cx="25500" cy="25501" r="24913"/>
	</g>
</svg>
