<?xml version="1.0" encoding="UTF-8"?>
<!DOCTYPE svg PUBLIC "-//W3C//DTD SVG 1.1//EN" "http://www.w3.org/Graphics/SVG/1.1/DTD/svg11.dtd">
<svg xmlns="http://www.w3.org/2000/svg" xml:space="preserve" width="45px" height="50px" version="1.1" style="shape-rendering:geometricPrecision; text-rendering:geometricPrecision; image-rendering:optimizeQuality; fill-rule:evenodd; clip-rule:evenodd" viewBox="0 0 452 497" xmlns:xlink="http://www.w3.org/1999/xlink">
 <defs>
  <style type="text/css">
   <![CDATA[
    .fil0 {fill:#fff}
   ]]>
  </style>
 </defs>
 <g id="Layer_x0020_1">
  <path class="fil0" d="M79 9c-26,10 -42,35 -55,57 -64,112 11,241 106,313l23 16 -28 102 284 0 -1 -16 -85 -45 32 -8c27,-10 56,-30 75,-51 14,-15 21,-34 22,-61 0,-15 -7,-57 -13,-69 -3,9 -4,12 -4,15 0,3 0,5 2,11 17,73 -17,129 -105,119 -69,-8 -144,-58 -193,-106 -38,-39 -72,-88 -89,-142 -19,-57 -9,-114 52,-130 17,-4 28,-4 40,-4l16 -6c-4,-3 -26,-4 -33,-4 -16,0 -32,2 -46,9l0 0z"/>
  <path class="fil0" d="M200 196c4,18 39,35 66,29 31,-7 43,-36 35,-58 -11,-25 -45,-33 -56,-41 -10,-9 -6,-28 8,-29 15,-1 20,11 27,21 3,0 16,-10 18,-12 -6,-18 -38,-35 -64,-26 -29,10 -36,43 -29,60 11,25 48,30 55,40 8,11 -2,26 -15,25 -14,-1 -23,-19 -25,-21 -5,1 -16,10 -20,12l0 0z"/>
  <path class="fil0" d="M205 181c-4,-6 -17,-13 -26,-18 -9,-5 -22,-9 -27,-18 -7,-11 6,-23 18,-22 13,1 16,12 23,21l3 -2c0,-4 -2,-8 -2,-14 0,-5 1,-10 1,-15 -5,-1 -9,-5 -15,-7 -31,-9 -61,5 -64,37 -4,26 8,38 33,50 5,2 9,5 15,7 22,10 7,35 -11,30 -11,-3 -16,-14 -21,-20 -5,0 -15,9 -20,11 4,19 48,44 82,24 6,-5 16,-14 17,-22 -1,-3 -17,-13 -22,-29 4,-4 15,-9 16,-13l0 0z"/>
  <path class="fil0" d="M400 203c-6,10 -10,16 -18,22 -8,6 -23,10 -34,6 -19,-5 -29,-27 -30,-51 -1,-45 29,-71 59,-51 8,6 12,13 18,23 3,-2 15,-12 18,-14 0,-9 -17,-21 -24,-25 -11,-6 -25,-9 -40,-9 -15,2 -26,4 -37,10 -8,5 -22,18 -24,25 10,10 23,18 23,41 0,29 -18,39 -20,44 2,7 17,17 27,21 13,6 24,7 41,6 14,0 26,-5 36,-11 6,-4 20,-16 21,-26 -3,-3 -12,-10 -16,-11l0 0z"/>
 </g>
</svg>
